<svg width="90" height="90" viewBox="0 0 90 90" fill="none" xmlns="http://www.w3.org/2000/svg">
<g clip-path="url(#clip0_101_4)">
<path d="M45 90C56.9347 90 68.3807 85.2589 76.8198 76.8198C85.2589 68.3807 90 56.9347 90 45C90 33.0653 85.2589 21.6193 76.8198 13.1802C68.3807 4.74106 56.9347 0 45 0C33.0653 0 21.6193 4.74106 13.1802 13.1802C4.74106 21.6193 0 33.0653 0 45C0 56.9347 4.74106 68.3807 13.1802 76.8198C21.6193 85.2589 33.0653 90 45 90V90ZM63.936 36.936L43.686 57.186C43.268 57.6051 42.7714 57.9376 42.2247 58.1644C41.678 58.3913 41.0919 58.508 40.5 58.508C39.9081 58.508 39.322 58.3913 38.7753 58.1644C38.2286 57.9376 37.732 57.6051 37.314 57.186L28.314 48.186C27.469 47.341 26.9943 46.195 26.9943 45C26.9943 43.805 27.469 42.659 28.314 41.814C29.159 40.969 30.305 40.4943 31.5 40.4943C32.695 40.4943 33.841 40.969 34.686 41.814L40.5 47.637L57.564 30.564C57.9824 30.1456 58.4791 29.8137 59.0257 29.5873C59.5724 29.3609 60.1583 29.2443 60.75 29.2443C61.3417 29.2443 61.9276 29.3609 62.4743 29.5873C63.0209 29.8137 63.5176 30.1456 63.936 30.564C64.3544 30.9824 64.6863 31.4791 64.9127 32.0257C65.1391 32.5724 65.2557 33.1583 65.2557 33.75C65.2557 34.3417 65.1391 34.9276 64.9127 35.4743C64.6863 36.0209 64.3544 36.5176 63.936 36.936V36.936Z" fill="#699BF7"/>
</g>
<defs>
<clipPath id="clip0_101_4">
<rect width="90" height="90" fill="white"/>
</clipPath>
</defs>
</svg>
